<svg width="89" height="86" viewBox="0 0 89 86" fill="none" xmlns="http://www.w3.org/2000/svg">
<rect width="89" height="86" rx="43" fill="#A0616A"/>
<path d="M45.829 10V16.1667" stroke="white" stroke-width="2" stroke-linecap="round" stroke-linejoin="round"/>
<path d="M24.0298 19.0342L28.3773 23.3817" stroke="white" stroke-width="2" stroke-linecap="round" stroke-linejoin="round"/>
<path d="M70.4956 40.8333H76.6623" stroke="white" stroke-width="2" stroke-linecap="round" stroke-linejoin="round"/>
<path d="M67.6281 19.0342L63.2806 23.3817" stroke="white" stroke-width="2" stroke-linecap="round" stroke-linejoin="round"/>
<path d="M57.9989 42.8375C58.3784 40.5389 58.099 38.1798 57.1932 36.0334C56.2874 33.8869 54.7922 32.0409 52.8806 30.7092C50.9691 29.3774 48.7194 28.6142 46.3921 28.5081C44.0648 28.402 41.755 28.9572 39.7302 30.1095" stroke="white" stroke-width="2" stroke-linecap="round" stroke-linejoin="round"/>
<path d="M18.079 65.5C16.6932 63.6504 15.7409 61.5129 15.2927 59.2456C14.8445 56.9783 14.9118 54.6393 15.4896 52.4015C16.0674 50.1637 17.1409 48.0845 18.6308 46.3176C20.1207 44.5508 21.9887 43.1415 24.0968 42.194C26.2048 41.2466 28.4989 40.7852 30.8094 40.8441C33.1198 40.903 35.3874 41.4806 37.4445 42.5341C39.5015 43.5877 41.2954 45.0903 42.6933 46.9307C44.0913 48.7712 45.0576 50.9024 45.5207 53.1667H48.9123C50.7884 53.1639 52.621 53.7317 54.1669 54.7946C55.7127 55.8576 56.8989 57.3655 57.5679 59.1182C58.2368 60.871 58.3571 62.7857 57.9125 64.6083C57.468 66.431 56.4798 68.0754 55.079 69.3233" stroke="white" stroke-width="2" stroke-linecap="round" stroke-linejoin="round"/>
<path d="M42.7457 65.5V71.6667" stroke="white" stroke-width="2" stroke-linecap="round" stroke-linejoin="round"/>
<path d="M30.4123 62.4167V68.5834" stroke="white" stroke-width="2" stroke-linecap="round" stroke-linejoin="round"/>
</svg>
