<svg width="74" height="74" viewBox="0 0 74 74" fill="none" xmlns="http://www.w3.org/2000/svg">
<path d="M37 6.16666V12.3333" stroke="white" stroke-width="2" stroke-linecap="round" stroke-linejoin="round"/>
<path d="M15.2008 15.2008L19.5483 19.5483" stroke="white" stroke-width="2" stroke-linecap="round" stroke-linejoin="round"/>
<path d="M61.6667 37H67.8333" stroke="white" stroke-width="2" stroke-linecap="round" stroke-linejoin="round"/>
<path d="M58.7992 15.2008L54.4517 19.5483" stroke="white" stroke-width="2" stroke-linecap="round" stroke-linejoin="round"/>
<path d="M49.1699 39.0042C49.5494 36.7055 49.27 34.3464 48.3642 32.2C47.4584 30.0536 45.9632 28.2076 44.0516 26.8758C42.1401 25.544 39.8904 24.7809 37.5631 24.6748C35.2358 24.5686 32.926 25.1239 30.9012 26.2762" stroke="white" stroke-width="2" stroke-linecap="round" stroke-linejoin="round"/>
<path d="M9.25 61.6667C7.86416 59.8171 6.91191 57.6796 6.46369 55.4123C6.01547 53.145 6.08275 50.8059 6.66056 48.5682C7.23838 46.3304 8.31193 44.2511 9.80179 42.4843C11.2917 40.7174 13.1597 39.3081 15.2678 38.3607C17.3758 37.4133 19.6699 36.9519 21.9803 37.0108C24.2908 37.0696 26.5584 37.6472 28.6155 38.7008C30.6725 39.7543 32.4664 41.2569 33.8643 43.0974C35.2623 44.9378 36.2286 47.069 36.6917 49.3333H40.0833C41.9594 49.3306 43.792 49.8983 45.3378 50.9613C46.8837 52.0243 48.0699 53.5321 48.7388 55.2849C49.4078 57.0376 49.528 58.9523 49.0835 60.775C48.639 62.5976 47.6508 64.242 46.25 65.49" stroke="white" stroke-width="2" stroke-linecap="round" stroke-linejoin="round"/>
<path d="M33.9167 61.6667V67.8333" stroke="white" stroke-width="2" stroke-linecap="round" stroke-linejoin="round"/>
<path d="M21.5833 58.5833V64.75" stroke="white" stroke-width="2" stroke-linecap="round" stroke-linejoin="round"/>
</svg>
